Fly_normalized_Motion_pl15
version=1
nRows=12
nColumns=43
inDegrees=yes
endheader
time		pelvis_tilt		pelvis_list		pelvis_rotation		pelvis_tx		pelvis_ty		pelvis_tz		hip_flexion_r		hip_adduction_r		hip_rotation_r		knee_angle_r		ankle_angle_r		subtalar_angle_r		mtp_angle_r		hip_flexion_l		hip_adduction_l		hip_rotation_l		knee_angle_l		ankle_angle_l		subtalar_angle_l		mtp_angle_l		lumbar_extension		lumbar_bending		lumbar_rotation		neck_flexion		neck_lateral_bending		neck_rotation		arm_flex_r		arm_add_r		arm_rot_r		elbow_flex_r		pro_sup_r		wrist_flex_r		wrist_dev_r		hand_finger_flex_r		arm_flex_l		arm_add_l		arm_rot_l		elbow_flex_l		pro_sup_l		wrist_flex_l		wrist_dev_l		hand_finger_flex_l		
1.734167		-0.717771		0.078352		83.845482		0.016049		1.560865		1.011071		52.885815		0.678028		-0.874996		-73.524768		-16.002781		-0.075030		3.480729		53.827048		-6.520313		-0.621622		-58.309972		-17.686967		-1.245753		9.698615		-47.371578		-2.698979		9.669811		14.816311		6.513767		-7.844726		7.580685		-41.525402		-7.513073		46.240411		102.114272		10.631766		7.585208		-33.564371		-4.228687		-38.901418		8.838256		72.028220		127.903426		-27.218697		-6.140820		-11.267604		
1.737904		-0.745313		0.335417		83.896065		0.015484		1.551340		1.001335		52.188648		0.541029		-0.935191		-72.312938		-15.987644		-0.007197		3.362008		52.978003		-6.516452		-0.963018		-57.295433		-18.179621		-1.058800		9.620973		-46.952253		-2.634671		9.984744		13.609467		6.575296		-8.227319		3.821404		-41.182339		-9.235355		46.117805		102.071754		10.854175		7.550141		-33.413135		-6.879057		-38.955545		8.547844		71.358352		127.877560		-27.289988		-6.139354		-11.800320		
1.741641		-0.773441		0.617258		83.953967		0.014863		1.541778		0.991496		51.405132		0.389191		-1.010552		-71.061831		-15.842237		0.056472		3.102953		52.059658		-6.489666		-1.291159		-56.256017		-18.629367		-0.890578		9.540338		-46.596171		-2.561964		10.460597		12.671340		6.571909		-8.753209		-0.263916		-40.534379		-11.891969		46.199835		102.130301		11.128144		7.499688		-33.168819		-9.383505		-38.947459		8.287182		70.716178		127.941639		-27.120451		-6.341328		-12.546491		
1.745379		-0.779308		0.886500		84.046491		0.014115		1.532052		0.981649		50.591635		0.228038		-1.127534		-69.777889		-15.629706		0.010938		2.968627		51.151671		-6.424714		-1.548959		-55.220407		-19.063396		-0.762711		9.429832		-46.244127		-2.436614		10.698518		11.855251		6.616132		-8.957477		-3.848914		-39.821224		-13.908400		45.994331		101.461591		11.086098		7.169303		-33.125057		-12.320808		-38.822297		7.479930		70.225636		127.939648		-27.299866		-6.638144		-12.792941		
1.749116		-0.766512		1.175657		84.117911		0.013390		1.522180		0.971702		49.738360		0.082739		-1.271586		-68.484340		-15.545866		-0.052036		2.797340		50.220581		-6.415071		-1.869115		-54.208135		-19.597925		-0.633946		9.277082		-45.817767		-2.291488		11.026934		10.618177		6.696054		-9.324764		-7.427428		-39.216235		-15.435565		45.842490		101.108768		11.139622		7.120376		-33.055804		-15.041211		-38.716224		6.923211		69.600050		127.964582		-27.334948		-6.826240		-12.948506		
1.752854		-0.703628		1.592678		84.219758		0.012371		1.512586		0.961667		48.671963		-0.096209		-1.506278		-67.116741		-15.406791		-0.179661		2.439188		49.107754		-6.374607		-2.138907		-53.155616		-20.073312		-0.528523		8.977153		-45.605994		-2.053811		11.548944		9.739934		6.631227		-9.887863		-11.318222		-38.341759		-17.861959		45.965623		100.732597		11.233426		7.138298		-32.914837		-17.514195		-38.505368		6.369396		68.923840		128.134775		-27.017537		-7.348711		-13.003653		
1.756591		-0.648863		1.904457		84.319566		0.011363		1.502581		0.951610		47.722420		-0.247947		-1.723258		-65.765919		-15.275351		-0.363280		2.180603		48.115559		-6.356503		-2.460796		-52.105491		-20.550722		-0.415570		8.681590		-45.205167		-1.794650		11.824486		8.536680		6.564759		-10.191429		-14.661180		-37.500929		-19.499770		45.799611		100.431952		11.266609		6.906846		-32.848936		-20.291308		-38.260046		5.682206		68.277461		128.036423		-27.107919		-7.579750		-13.062065		
1.760328		-0.609187		2.201338		84.395787		0.010192		1.492352		0.941481		46.806999		-0.401701		-1.887240		-64.439502		-15.179290		-0.533319		1.942398		47.132720		-6.313188		-2.772263		-51.066406		-21.059173		-0.278223		8.386833		-44.747647		-1.527914		12.083974		7.193342		6.466420		-10.457347		-17.916032		-36.675237		-20.956566		45.602008		100.178823		11.274572		6.637232		-32.802260		-23.091224		-37.965003		4.975978		67.659454		127.906445		-27.252534		-7.783030		-13.103970		
1.764066		-0.550052		2.577082		84.499996		0.009105		1.482216		0.931280		45.764767		-0.569744		-2.131429		-63.089336		-15.016658		-0.725459		1.583732		46.006848		-6.258972		-3.060440		-49.933944		-21.482118		-0.175138		7.949972		-44.417239		-1.229861		12.386209		6.060165		6.209786		-10.793827		-21.190744		-35.581061		-22.866690		45.544046		99.973586		11.264392		6.216591		-32.722004		-25.816961		-37.580330		4.077826		66.986428		127.824771		-27.161860		-8.341779		-12.974649		
1.767803		-0.534842		2.808069		84.586374		0.007971		1.471539		0.921018		44.925436		-0.749072		-2.340204		-61.781949		-15.035854		-0.812798		1.341771		45.084950		-6.232612		-3.503349		-48.890783		-22.032865		-0.014401		7.634014		-43.823557		-0.970040		12.601414		4.570407		6.236585		-11.052616		-24.291825		-34.694919		-23.958517		45.394570		99.938113		11.250592		5.883334		-32.682503		-28.591058		-37.233203		3.337751		66.333387		127.665605		-27.355771		-8.533495		-12.973716		
1.771540		-0.535951		3.053569		84.652718		0.006889		1.460709		0.910744		44.055158		-0.945081		-2.537310		-60.451356		-14.971797		-0.941058		1.041517		44.109168		-6.184955		-3.877634		-47.790973		-22.525400		0.074908		7.256743		-43.263723		-0.716500		12.814822		3.181095		6.037884		-11.339738		-27.314970		-33.597977		-25.370569		45.299977		99.980171		11.117374		5.371732		-32.641487		-31.361208		-36.799802		2.402314		65.688488		127.545139		-27.455011		-8.955168		-12.891658		
1.775278		-0.527233		3.327007		84.745108		0.005798		1.449885		0.900370		43.127380		-1.157271		-2.831086		-59.096727		-14.939387		-1.055630		0.529981		43.066602		-6.145192		-4.334440		-46.647519		-23.016732		0.103592		6.697884		-42.732373		-0.439010		13.037520		1.833902		5.880083		-11.711140		-30.291813		-32.363566		-26.906930		45.287134		100.552647		10.981655		4.807231		-32.470913		-34.049636		-36.289545		1.345070		64.982220		127.491334		-27.377979		-9.608612		-12.684740		
